<mxfile host="app.diagrams.net" modified="2024-05-28T13:40:52.870Z" agent="Mozilla/5.0 (Windows NT 10.0; Win64; x64; rv:126.0) Gecko/20100101 Firefox/126.0" version="24.4.9" etag="wJt2nB3M4CPg_50M4Ngx" type="github">
  <diagram name="Страница — 1" id="iqkxfHfwXsgx9ypsOMb9">
    <mxGraphModel>
      <root>
        <mxCell id="0" />
        <mxCell id="1" parent="0" />
      </root>
    </mxGraphModel>
  </diagram>
</mxfile>
